<svg xmlns="http://www.w3.org/2000/svg" viewBox="0 0 24 16">
  <rect width="24" height="16" fill="#de2910" />
  <polygon
    points="5.00,1.80 5.76,3.95 8.04,4.01 6.24,5.40 6.88,7.59 5.00,6.30 3.12,7.59 3.76,5.40 1.96,4.01 4.24,3.95"
    fill="#ffde00"
  />
  <polygon
    points="9.00,1.80 9.29,2.60 10.14,2.63 9.48,3.15 9.71,3.97 9.00,3.50 8.29,3.97 8.52,3.15 7.86,2.63 8.71,2.60"
    fill="#ffde00"
  />
  <polygon
    points="11.00,3.80 11.29,4.60 12.14,4.63 11.48,5.15 11.71,5.97 11.00,5.50 10.29,5.97 10.52,5.15 9.86,4.63 10.71,4.60"
    fill="#ffde00"
  />
  <polygon
    points="11.00,5.80 11.29,6.60 12.14,6.63 11.48,7.15 11.71,7.97 11.00,7.50 10.29,7.97 10.52,7.15 9.86,6.63 10.71,6.60"
    fill="#ffde00"
  />
  <polygon
    points="9.00,7.80 9.29,8.60 10.14,8.63 9.48,9.15 9.71,9.97 9.00,9.50 8.29,9.97 8.52,9.15 7.86,8.63 8.71,8.60"
    fill="#ffde00"
  />
</svg>
